<?xml version="1.0" standalone="no"?>
<!DOCTYPE svg PUBLIC "-//W3C//DTD SVG 20010904//EN"
    "http://www.w3.org/TR/2001/REC-SVG-20010904/DTD/svg10.dtd">
<svg version="1.0" xmlns="http://www.w3.org/2000/svg"
     width="700.000000pt" height="700.000000pt" viewBox="0 0 700.000000 700.000000"
     preserveAspectRatio="xMidYMid meet">
  <metadata>
    Created by potrace 1.14, written by Peter Selinger 2001-2017
  </metadata>
  <g transform="translate(0.000000,700.000000) scale(0.100000,-0.100000)"
     fill="#000000" stroke="none">
    <path d="M3752 6022 c-123 -28 -253 -126 -307 -231 -70 -139 -44 -263 81 -387
75 -74 151 -113 239 -121 120 -10 257 53 327 152 l31 43 36 -13 c125 -46 309
-140 444 -228 457 -299 798 -737 965 -1242 75 -225 75 -233 14 -201 -66 34
-455 156 -577 182 -99 20 -125 25 -151 30 -16 3 -36 7 -44 9 -8 2 -37 7 -65
11 -27 3 -54 7 -60 8 -5 0 -27 33 -48 71 -201 364 -552 598 -977 652 -71 9
-270 9 -339 0 -314 -42 -622 -213 -803 -447 -47 -60 -58 -80 -32 -59 55 47
170 81 267 78 130 -4 250 -55 342 -146 101 -99 136 -183 140 -332 4 -166 -28
-255 -125 -351 -94 -94 -220 -139 -373 -135 -230 7 -405 138 -459 344 -9 36
-17 62 -18 56 -1 -5 -3 -19 -5 -30 -10 -46 -19 -176 -19 -265 -1 -599 336
-1047 893 -1190 84 -21 101 -24 226 -39 105 -12 337 -4 405 14 8 2 31 7 50 10
19 3 87 22 150 42 204 64 368 162 516 308 50 50 110 118 133 152 90 134 154
296 182 458 21 116 17 359 -6 476 -3 13 -8 38 -10 54 -3 17 -12 56 -20 88 -8
32 -15 61 -15 64 0 15 265 -27 456 -73 60 -14 114 -27 119 -28 44 -10 320
-100 331 -108 32 -24 52 -419 30 -578 -9 -61 -32 -191 -41 -230 -3 -14 -8 -36
-11 -49 -16 -79 -95 -286 -154 -406 -67 -136 -188 -332 -227 -367 -18 -16 -21
-16 -70 7 -87 42 -172 55 -333 51 -161 -4 -170 -6 -255 -30 -113 -34 -174 -78
-196 -143 -6 -20 -16 -31 -27 -31 -9 1 -60 -2 -112 -6 -592 -45 -1133 -49
-1435 -11 -162 20 -194 25 -255 36 -661 125 -1055 407 -1235 886 -26 68 -64
206 -70 253 -5 37 -17 122 -21 144 -5 30 -8 126 -3 130 25 22 162 113 229 152
194 114 460 222 705 286 93 24 99 28 104 65 10 80 11 78 -44 77 -485 -9 -1116
-267 -1434 -585 -469 -470 -231 -926 647 -1239 66 -23 92 -37 92 -49 0 -18
109 -187 169 -261 20 -24 45 -56 56 -70 11 -14 72 -77 135 -141 354 -356 794
-563 1330 -625 86 -10 406 -11 497 -1 91 10 141 16 173 22 14 3 51 10 82 15
32 6 69 13 83 16 68 12 283 80 395 124 412 163 768 417 1036 740 265 319 437
706 489 1100 3 25 9 59 12 75 8 48 11 376 3 436 -4 29 -5 57 -1 61 7 8 122
-64 190 -120 101 -82 158 -148 212 -243 37 -66 28 -27 -14 58 -50 103 -155
214 -293 310 l-80 56 -13 94 c-28 213 -118 507 -217 709 -77 157 -211 372
-290 464 -211 246 -348 370 -570 516 -183 121 -421 231 -663 306 l-74 23 -17
57 c-59 194 -214 284 -408 240z m-2677 -2822 c15 -171 38 -315 67 -425 5 -22
11 -47 13 -56 11 -55 92 -286 121 -340 15 -29 15 -31 0 -26 -40 16 -144 95
-204 157 -181 184 -224 385 -128 585 27 56 114 177 123 171 1 -1 5 -31 8 -66z
m1202 -1385 c39 -8 89 -17 110 -20 21 -3 61 -10 88 -15 28 -5 82 -12 120 -16
39 -3 78 -8 87 -10 43 -7 333 -17 523 -17 186 -1 481 7 735 18 296 13 405 15
665 15 301 -1 372 -3 381 -12 7 -8 -115 -96 -221 -160 -232 -140 -497 -236
-755 -274 -19 -3 -41 -7 -48 -9 -74 -25 -620 -25 -695 0 -7 2 -28 6 -47 9 -47
8 -86 15 -140 27 -25 6 -56 13 -69 15 -14 3 -74 21 -135 41 -266 85 -501 205
-710 363 -158 120 -154 113 -51 85 50 -14 122 -32 162 -40z" />
    <path d="M1380 4610 c-6 -11 -8 -20 -6 -20 3 0 10 9 16 20 6 11 8 20 6 20 -3
0 -10 -9 -16 -20z" />
    <path d="M1307 4467 c-88 -173 -160 -382 -196 -567 -20 -98 -21 -104 -26 -160
-3 -30 -8 -67 -11 -82 l-5 -27 40 16 41 16 2 76 c5 240 74 529 179 750 22 46
38 85 36 87 -2 2 -29 -47 -60 -109z" />
  </g>
</svg>
